<?xml version="1.0" encoding="utf-8"?>
<!-- Generator: Adobe Illustrator 24.0.0, SVG Export Plug-In . SVG Version: 6.00 Build 0)  -->
<svg version="1.1" id="Camada_1" xmlns="http://www.w3.org/2000/svg" xmlns:xlink="http://www.w3.org/1999/xlink" x="0px" y="0px"
	 viewBox="0 0 45 45" style="enable-background:new 0 0 45 45;" xml:space="preserve">
<style type="text/css">
	.st0{fill:none;stroke:#FFFFFF;stroke-width:2;}
	.st1{fill:#FFFFFF;}
</style>
<path class="st0" d="M22.5,1L22.5,1C34.4,1,44,10.6,44,22.5l0,0C44,34.4,34.4,44,22.5,44l0,0C10.6,44,1,34.4,1,22.5l0,0
	C1,10.6,10.6,1,22.5,1z"/>
<path class="st1" d="M22.5,34.5c-1.7,0-3-1.3-3-3c0-1.7,1.3-3,3-3s3,1.3,3,3C25.5,33.2,24.2,34.5,22.5,34.5z M22.5,25.5
	c-1.7,0-3-1.3-3-3s1.3-3,3-3s3,1.3,3,3c0,0.8-0.3,1.6-0.9,2.1C24.1,25.2,23.3,25.5,22.5,25.5z M22.5,16.5c-1.7,0-3-1.3-3-3
	s1.3-3,3-3s3,1.3,3,3c0,0.8-0.3,1.6-0.9,2.1C24.1,16.2,23.3,16.5,22.5,16.5z"/>
</svg>
